# xmcd
#
# Track frame offsets: 
#        150
#        11550
#        25682
#        40297
#        53237
#        63635
#        75355
#        85960
#        95130
#        104127
#        114692
#        123912
#        133652
#        143200
#        152495
#        163485
#        174652
#        186105
#        195555
#        210725
#        224487
#        235330
#        246060
#        255085
#        263705
#        276495
#        287837
#        297660
#        307250
#        319290
#
# Disc length: 4349 seconds
#
# Revision: 0
# Processed by: cddbd v1.5.2PL0 Copyright (c) Steve Scherf et al.
# Submitted via: ExactAudioCopy v0.99pb5
#
DISCID=d210fb1e
DTITLE=Tony De La Rosa - 30 Exitos
DYEAR=1999
DGENRE=Tejano
TTITLE0=La Estrella
TTITLE1=Dos Corazones Errantes
TTITLE2=Alondra
TTITLE3=Atotonilco
TTITLE4=San Juan Del Rio
TTITLE5=Tu Corazon Y El Mio
TTITLE6=El Libro De Los Dioses
TTITLE7=El Piquete
TTITLE8=Esta Noche Voy A Veria
TTITLE9=Doble Pagaras
TTITLE10=Tencha
TTITLE11=Quiero Querete
TTITLE12=Palomita De Alas Blanncas
TTITLE13=El Muchacho Alegre
TTITLE14=El Sube Y Baja
TTITLE15=Cuarenta Anos
TTITLE16=Tomando Y Bailando
TTITLE17=Oye Mi Corazon
TTITLE18=El Preso
TTITLE19=Mi Ultima Parranda
TTITLE20=Chaparrita Por Tu Amor
TTITLE21=El Circo
TTITLE22=Los Suenos
TTITLE23=El Pescado Nadador
TTITLE24=Tengo Penas
TTITLE25=Cincuenta Balas
TTITLE26=Son Mentiritas
TTITLE27=Quiero Vivir Contigo
TTITLE28=Yo Conosco Unos Ojos
TTITLE29=El Guajolote
EXTD=
EXTT0=
EXTT1=
EXTT2=
EXTT3=
EXTT4=
EXTT5=
EXTT6=
EXTT7=
EXTT8=
EXTT9=
EXTT10=
EXTT11=
EXTT12=
EXTT13=
EXTT14=
EXTT15=
EXTT16=
EXTT17=
EXTT18=
EXTT19=
EXTT20=
EXTT21=
EXTT22=
EXTT23=
EXTT24=
EXTT25=
EXTT26=
EXTT27=
EXTT28=
EXTT29=
PLAYORDER=
